<svg xmlns="http://www.w3.org/2000/svg" width="21.433" height="15.309" viewBox="0 0 21.433 15.309"><defs><style>.a{fill:#6c7174;}</style></defs><g transform="translate(-9 -21.491)"><g transform="translate(8 20)"><path class="a" d="M8.765,972.362a.766.766,0,0,0-.765.765v13.778a.766.766,0,0,0,.765.765h19.9a.765.765,0,0,0,.765-.765V973.128a.766.766,0,0,0-.765-.765Zm2.1,1.531H26.571l-7.854,6.65-7.854-6.65Zm-1.332.885,8.691,7.352a.765.765,0,0,0,.989,0l8.691-7.352v11.362H9.531V974.778Z" transform="translate(-7 -970.871)"/></g></g></svg>