<svg xmlns="http://www.w3.org/2000/svg" width="91.674" height="87.396" viewBox="0 0 91.674 87.396"><defs><style>.a{fill:#c7222a;}</style></defs><g transform="translate(-5.827 -7.05)"><g transform="translate(5.827 7.05)"><path class="a" d="M95.2,32.775l-2.887-2.887a7.892,7.892,0,0,0-11.146,0l-6.89,6.89V9.677A2.627,2.627,0,0,0,71.646,7.05h-34.8c-.053,0-.1.025-.152.028a2.589,2.589,0,0,0-.612.113,2.537,2.537,0,0,0-.245.075,2.608,2.608,0,0,0-.745.454L6.7,33.151a2.6,2.6,0,0,0-.451.549c-.034.053-.064.106-.094.161a2.6,2.6,0,0,0-.223.549c-.01.036-.026.07-.035.105a2.615,2.615,0,0,0-.072.591V91.818a2.627,2.627,0,0,0,2.627,2.627H71.645a2.627,2.627,0,0,0,2.627-2.627V64.845L95.2,43.922a7.892,7.892,0,0,0,0-11.146Zm-6.6.828L91.48,36.49a2.632,2.632,0,0,1,0,3.717l-1.809,1.81-6.6-6.6L84.879,33.6a2.634,2.634,0,0,1,3.715,0ZM58.507,73.181l-8.854,2.241L51.9,66.579l27.449-27.45,6.6,6.6ZM30.466,18.919l3.753-3.363V32.481H15.326ZM69.019,89.191H11.082V37.735H36.846a2.627,2.627,0,0,0,2.627-2.627V12.3H69.02V42.033L47.679,63.374a2.615,2.615,0,0,0-.688,1.208L43.472,78.4a2.627,2.627,0,0,0,3.191,3.2L60.5,78.1a2.621,2.621,0,0,0,1.213-.689L69.019,70.1Z" transform="translate(-5.827 -7.05)"/></g></g></svg>