<svg xmlns="http://www.w3.org/2000/svg" width="95.011" height="94.911" viewBox="0 0 95.011 94.911"><defs><style>.a{fill:#c7222a;}</style></defs><g transform="translate(-1.9 -3.089)"><path class="a" d="M85.5,46.5C94.5,30.9,97.1,14,96.9,8A5.115,5.115,0,0,0,92,3.1c-6-.2-22.9,2.4-38.5,11.4L46,11.7a22.6,22.6,0,0,0-24.9,6.6L8.4,33.2a5.938,5.938,0,0,0-1.2,5.6,6.056,6.056,0,0,0,1.6,2.8A5.935,5.935,0,0,0,11.1,43l10.6,3.9c-5.9,8.8-9.4,16.5-7.4,18.5L34.7,85.8c2.1,2.1,9.8-1.5,18.6-7.4L57.1,89a5.547,5.547,0,0,0,1.4,2.2,6.056,6.056,0,0,0,2.8,1.6,5.849,5.849,0,0,0,5.5-1.3L81.7,78.9A22.769,22.769,0,0,0,88.3,54ZM91.8,7.4a.632.632,0,0,1,.7.7c.1,3.2-.8,10.3-3.3,18.6l-16-16C81.5,8.2,88.6,7.3,91.8,7.4ZM12.5,38.8a1.649,1.649,0,0,1-1.1-1.2,1.875,1.875,0,0,1,.4-1.6L24.4,21.1a18.216,18.216,0,0,1,20.1-5.3l4.3,1.6a65.733,65.733,0,0,0-9.7,7.9,154.867,154.867,0,0,0-15,17.8ZM37.1,82,18,62.9c.5-1.9,3-7.1,7.4-13.9L51,74.6C44.3,79.1,39,81.5,37.1,82ZM27.9,45.3a127.8,127.8,0,0,1,14.3-17c7.7-7.7,17.4-12.8,26.4-16L87.7,31.4c-3.2,8.9-8.3,18.7-16,26.4a127.8,127.8,0,0,1-17,14.3Zm51,30.3L64,88.2a1.8,1.8,0,0,1-1.6.4,1.887,1.887,0,0,1-1.2-1.1L56.9,75.8a145.384,145.384,0,0,0,17.8-15,65.734,65.734,0,0,0,7.9-9.7l1.6,4.3A18.326,18.326,0,0,1,78.9,75.6Z"/><path class="a" d="M68.3,31.7a11.879,11.879,0,1,0,0,16.8A11.771,11.771,0,0,0,68.3,31.7Zm-3,13.6a7.5,7.5,0,1,1,0-10.6A7.545,7.545,0,0,1,65.3,45.3Z"/><path class="a" d="M25.4,87.2l-7.1,7.1a2.192,2.192,0,0,0,3.1,3.1l7.1-7.1a2.192,2.192,0,1,0-3.1-3.1Z"/><path class="a" d="M20.6,79.4a2.3,2.3,0,0,0-3.1,0L6.2,90.7a2.3,2.3,0,0,0,0,3.1,2.3,2.3,0,0,0,3.1,0L20.7,82.4A2.086,2.086,0,0,0,20.6,79.4Z"/><path class="a" d="M12.7,74.6a2.3,2.3,0,0,0,0-3.1,2.3,2.3,0,0,0-3.1,0L2.5,78.6a2.3,2.3,0,0,0,0,3.1,2.3,2.3,0,0,0,3.1,0Z"/></g></svg>