<svg xmlns="http://www.w3.org/2000/svg" width="101.356" height="86.265" viewBox="0 0 101.356 86.265"><defs><style>.a{fill:#c7222a;}</style></defs><g transform="translate(0 53.424) rotate(-34)"><path class="a" d="M75.732,39.613H57.09A19.83,19.83,0,0,1,37.283,19.807v-2.33a3.5,3.5,0,1,1,6.991,0v2.33A12.829,12.829,0,0,0,57.09,32.623H75.732a12.816,12.816,0,1,0,0-25.632H59.42A3.5,3.5,0,0,1,59.42,0H75.732a19.807,19.807,0,0,1,0,39.613Zm-36.118-3.5a3.5,3.5,0,0,0-3.5-3.5H19.807a12.816,12.816,0,0,1,0-25.632H38.448A12.829,12.829,0,0,1,51.264,19.807v2.33a3.5,3.5,0,1,0,6.991,0v-2.33A19.83,19.83,0,0,0,38.448,0H19.807a19.807,19.807,0,0,0,0,39.613H36.118A3.5,3.5,0,0,0,39.613,36.118Z" transform="translate(0 0)"/></g></svg>