<svg xmlns="http://www.w3.org/2000/svg" width="17.225" height="22.966" viewBox="0 0 17.225 22.966"><defs><style>.a{fill:#6c7174;}</style></defs><path class="a" d="M20.393,6A3.272,3.272,0,0,0,17,9.132v16.7a3.272,3.272,0,0,0,3.393,3.132H30.832a3.272,3.272,0,0,0,3.393-3.132V9.132A3.272,3.272,0,0,0,30.832,6Zm0,1.044H30.832a2.216,2.216,0,0,1,2.349,2.088v16.7a2.216,2.216,0,0,1-2.349,2.088H20.393a2.216,2.216,0,0,1-2.349-2.088V9.132A2.216,2.216,0,0,1,20.393,7.044Zm.522,1.044a1.834,1.834,0,0,0-1.827,1.827V23.486a1.834,1.834,0,0,0,1.827,1.827h9.4a1.834,1.834,0,0,0,1.827-1.827V9.915A1.834,1.834,0,0,0,30.31,8.088Zm0,1.044h9.4a.77.77,0,0,1,.783.783V23.486a.77.77,0,0,1-.783.783h-9.4a.77.77,0,0,1-.783-.783V9.915A.77.77,0,0,1,20.915,9.132Zm3.4,16.964a.523.523,0,0,0,.057,1.044h2.479a.522.522,0,1,0,0-1.044H24.373a.523.523,0,0,0-.057,0Z" transform="translate(-17 -6)"/></svg>