<svg xmlns="http://www.w3.org/2000/svg" width="39.5" height="33.568" viewBox="0 0 39.5 33.568"><defs><style>.a{fill:#fff;stroke:#fff;stroke-width:0.5px;}</style></defs><g transform="translate(-71.053 -132.42)"><g transform="translate(84.769 134.218)"><g transform="translate(0 0)"><path class="a" d="M364.388,186.79h21.835a3.04,3.04,0,0,0,3.054-3.062V169.3a3.028,3.028,0,0,0-1.589-2.647,5.736,5.736,0,0,0-2.767-.35h-9.986a.645.645,0,1,0,0,1.289h11.413c.025,0,.271.026.145.007a2.33,2.33,0,0,1,.361.089c.009,0,.195.077.074.024.056.024.109.053.163.082s.1.061.155.094c.008.005.166.123.064.042a2.365,2.365,0,0,1,.3.294c.128.146-.066-.1.047.06.035.049.066.1.1.153s.059.106.086.16c.088.175-.039-.114.03.071a2.332,2.332,0,0,1,.1.358c.04.2-.008-.124.011.079.006.064.008.129.008.193v12.919c0,.588.032,1.185-.008,1.772-.014.2.024-.12-.011.079-.011.061-.027.122-.042.182s-.036.118-.056.176c-.065.186.053-.106-.03.071a2.357,2.357,0,0,1-.183.313c-.109.161.078-.089-.047.06a2.36,2.36,0,0,1-.166.174c-.043.042-.089.081-.135.119.1-.083-.055.036-.064.042a2.355,2.355,0,0,1-.318.175c.119-.056-.064.021-.074.024-.058.02-.118.036-.178.051s-.122.027-.183.038c.125-.022-.119.006-.145.007-.22.009-.442,0-.663,0h-21.3a.645.645,0,0,0,0,1.289Z" transform="translate(-363.743 -166.294)"/></g></g><g transform="translate(78.638 134.228)"><g transform="translate(0 0)"><path class="a" d="M231.9,178.185v-8.661c0-.092.005-.184.014-.276-.013.135.015-.065.017-.077.012-.061.03-.12.047-.18s.039-.117.06-.174c-.043.115.053-.1.064-.121.029-.053.061-.1.094-.155.005-.008.123-.166.042-.064a2.368,2.368,0,0,1,.248-.261c.007-.007.16-.13.056-.051.048-.036.1-.069.15-.1s.1-.061.158-.09q.054-.028.109-.053-.091.037.016,0a2.334,2.334,0,0,1,.358-.1c.2-.04-.124.008.079-.011.064-.006.128-.007.193-.008H244.76a.645.645,0,0,0,0-1.289H233.655a3.037,3.037,0,0,0-2.287,1.009,3.122,3.122,0,0,0-.754,2.109v8.558a.645.645,0,1,0,1.289,0Z" transform="translate(-230.613 -166.51)"/></g></g><g transform="translate(91.193 153.425)"><g transform="translate(0 0)"><path class="a" d="M508.536,584.069V589.9l.645-.645h-5.265l.645.645v-5.832l-.645.645h5.265a.645.645,0,0,0,0-1.289h-5.265a.651.651,0,0,0-.645.645V589.9a.651.651,0,0,0,.645.645h5.265a.651.651,0,0,0,.645-.645v-5.832a.645.645,0,0,0-1.289,0Z" transform="translate(-503.271 -583.424)"/></g></g><g transform="translate(88.186 159.257)"><g transform="translate(0 0)"><path class="a" d="M438.6,711.369h12.2a.645.645,0,0,0,0-1.289H438.6a.645.645,0,0,0,0,1.289Z" transform="translate(-437.954 -710.08)"/></g></g><g transform="translate(75.443 145.01)"><g transform="translate(0)"><path class="a" d="M171.354,406.359c0,.128-.006.256-.014.384,0,.063-.011.126-.018.189-.022.206.021-.125-.011.078a5.042,5.042,0,0,1-.192.78c-.019.058-.04.116-.061.173,0,.009-.078.2-.026.072-.047.112-.1.221-.156.329a5.079,5.079,0,0,1-.412.665c-.115.16.077-.094-.046.06-.037.047-.076.092-.115.138-.078.091-.161.178-.245.263s-.173.166-.263.245c-.045.04-.091.078-.138.116s-.062.05-.012.01l-.1.071a5.073,5.073,0,0,1-.616.377c-.107.056-.218.107-.329.156.122-.053-.063.022-.072.026-.076.029-.154.055-.231.08a5.045,5.045,0,0,1-.722.173c-.2.034.128-.013-.078.011-.063.007-.126.013-.189.018-.149.012-.3.015-.449.014-.128,0-.256-.009-.383-.019-.063-.005-.126-.013-.189-.02.137.016-.067-.013-.077-.014a5.037,5.037,0,0,1-.777-.2c-.058-.02-.115-.041-.172-.063-.187-.071.112.051-.071-.029-.111-.048-.219-.1-.326-.159a5.067,5.067,0,0,1-.659-.42c.106.078-.05-.042-.058-.048-.046-.038-.091-.078-.136-.117-.09-.079-.176-.163-.26-.248s-.164-.175-.242-.266c-.039-.046-.076-.092-.114-.139.077.1-.065-.092-.078-.111a5.066,5.066,0,0,1-.37-.621c-.028-.054-.053-.109-.079-.164,0-.009-.081-.193-.031-.069-.054-.132-.1-.267-.143-.4a5.047,5.047,0,0,1-.164-.725c.021.137-.007-.069-.008-.079-.007-.063-.011-.127-.015-.19-.01-.15-.011-.3-.008-.45,0-.128.012-.255.024-.382,0-.01.028-.216.008-.079.009-.062.02-.124.031-.185a5.032,5.032,0,0,1,.211-.773c.02-.058.043-.114.065-.171-.049.124.027-.06.031-.069.05-.11.106-.218.163-.324s.12-.209.185-.31c.032-.051.066-.1.1-.15.013-.018.154-.208.078-.11a5.1,5.1,0,0,1,.484-.531c.086-.083.177-.162.269-.239.007-.006.163-.127.058-.048.064-.049.129-.094.2-.14a5.075,5.075,0,0,1,.625-.363c.054-.027.11-.052.165-.077.182-.082-.115.045.071-.028.133-.052.269-.1.406-.138.118-.035.239-.064.359-.091.061-.013.122-.025.183-.036.01,0,.214-.032.077-.014a5.137,5.137,0,0,1,.829-.036c.127,0,.254.015.381.029.206.022-.125-.021.078.011.062.01.123.022.184.034a5.025,5.025,0,0,1,.769.22c.009,0,.2.078.072.026.056.024.111.049.166.075.11.051.216.108.322.167s.207.123.308.189c.05.033.1.068.148.1.008.005.165.124.061.043a5.113,5.113,0,0,1,.531.484c.083.086.162.177.239.269.006.007.128.163.048.058.036.048.071.1.106.146a5.087,5.087,0,0,1,.37.621c.028.054.053.109.079.164,0,.009.082.193.031.069.046.113.086.229.124.345a5.051,5.051,0,0,1,.173.722c.034.2-.013-.128.011.078.007.063.013.126.018.189.01.128.013.256.014.384a.645.645,0,0,0,1.289,0,5.714,5.714,0,1,0-1.848,4.208,5.765,5.765,0,0,0,1.848-4.208.645.645,0,0,0-1.289,0Z" transform="translate(-161.217 -400.656)"/></g></g><g transform="translate(71.303 155.241)"><path class="a" d="M91,632.714a9.857,9.857,0,0,0-2.009-5.955,9.979,9.979,0,0,0-5.173-3.53,9.844,9.844,0,0,0-6.381.363,10,10,0,0,0-4.742,4.063,9.878,9.878,0,0,0-1.4,5.058.65.65,0,0,0,.645.645H90.359a.645.645,0,1,0,0-1.289H71.948l.645.645q0-.386.032-.771c.01-.127.024-.253.039-.379-.016.136.01-.069.012-.079.012-.083.027-.165.041-.248a9.148,9.148,0,0,1,.4-1.494,5.438,5.438,0,0,1,.238-.58c.11-.239.233-.472.363-.7.12-.21.25-.414.386-.614.068-.1.138-.2.21-.294.005-.007.126-.165.045-.061.049-.063.1-.126.151-.188a9.278,9.278,0,0,1,1.049-1.076,7.483,7.483,0,0,1,1.133-.825c.207-.127.419-.244.635-.354.108-.055.218-.107.329-.158l.167-.074c-.114.05.108-.044.128-.052a9.152,9.152,0,0,1,1.478-.442c.123-.026.246-.048.369-.069l.187-.029c.205-.031-.128.015.079-.01.275-.033.552-.051.828-.06.258-.008.517,0,.775.011.128.007.255.017.382.029l.189.02q.117.015.017,0l.125.018a9.151,9.151,0,0,1,1.51.364c.117.038.232.08.347.123l.171.067c.008,0,.194.082.072.029.242.1.479.221.711.345.213.114.421.239.625.37.1.065.2.133.3.2l.147.106c.018.013.207.157.11.081a9.258,9.258,0,0,1,1.1,1.02c.164.177.318.361.468.55-.081-.1.04.054.045.061.036.048.071.1.106.146.082.114.161.231.237.349a9.189,9.189,0,0,1,.715,1.336c-.053-.122.026.063.029.072.031.076.06.152.088.229.05.134.1.27.14.407a9.139,9.139,0,0,1,.236.9c.03.143.056.287.079.431.01.062.019.125.028.187-.018-.128.013.12.015.143a9.314,9.314,0,0,1,.05.961.645.645,0,1,0,1.289,0Z" transform="translate(-71.303 -622.863)"/></g><g transform="translate(91.384 140.254)"><g transform="translate(0 0)"><path class="a" d="M512.117,300.388c0,.065,0,.129-.008.193-.014.2.024-.12-.011.08a2.337,2.337,0,0,1-.1.359c-.065.187.053-.106-.03.072-.026.055-.056.108-.086.161s-.064.1-.1.153-.047.065-.008.014q-.038.047-.079.092a2.383,2.383,0,0,1-.262.249c.1-.083-.056.036-.064.042-.05.034-.1.064-.156.094s-.108.056-.163.082c.119-.056-.065.021-.074.025-.059.02-.119.036-.179.052-.024.006-.264.047-.138.032a1.717,1.717,0,0,1-1.924-1.3c-.016-.061-.027-.122-.038-.184.024.134,0-.071,0-.082a2.383,2.383,0,0,1,.01-.386c-.013.134.015-.066.017-.077.013-.061.03-.121.047-.18s.039-.117.061-.175c-.043.114.053-.1.065-.122.029-.053.061-.1.094-.156.005-.008.123-.166.042-.064a2.371,2.371,0,0,1,.249-.262c.007-.007.16-.13.057-.052.048-.036.1-.069.15-.1s.1-.061.158-.09q.054-.028.11-.053-.09.037.016,0a2.338,2.338,0,0,1,.359-.1c.2-.041-.124.008.08-.011.064-.006.129-.007.193-.008s.129,0,.193.008c.2.014-.12-.024.08.011a2.343,2.343,0,0,1,.416.12c-.122-.046.059.031.069.036.054.027.106.059.158.09s.1.066.15.1c-.105-.075.049.045.057.052a2.379,2.379,0,0,1,.249.262c-.083-.1.036.056.042.064a2.368,2.368,0,0,1,.123.209q.028.054.053.11-.037-.09,0,.016a2.373,2.373,0,0,1,.072.237c.006.024.047.264.032.138a2.387,2.387,0,0,1,.014.257.645.645,0,1,0,1.289,0,3,3,0,1,0-5.705,1.3,3,3,0,0,0,5.705-1.3.645.645,0,1,0-1.289,0Z" transform="translate(-507.419 -297.387)"/></g></g><g transform="translate(89.447 145.02)"><g transform="translate(0 0)"><path class="a" d="M475.182,405.794a4.921,4.921,0,0,0-9.4-2.033,5.068,5.068,0,0,0-.442,2.033.65.65,0,0,0,.645.645h8.556a.645.645,0,1,0,0-1.289h-8.556l.645.645c0-.129.007-.257.017-.386,0-.009.026-.216.007-.081.009-.062.02-.124.032-.186a4.245,4.245,0,0,1,.228-.771c-.048.123.029-.062.033-.07.026-.055.053-.109.081-.164.056-.108.118-.212.182-.315a2.579,2.579,0,0,1,.421-.533c.083-.088.171-.17.261-.25.045-.04.092-.079.138-.117.153-.125-.1.071.061-.046a4.282,4.282,0,0,1,.679-.4c.008,0,.192-.083.07-.033.057-.023.115-.044.172-.065.116-.042.235-.076.355-.108s.244-.056.367-.077c.2-.035-.127.012.079-.011.085-.009.17-.015.255-.019.129-.007.259,0,.388,0,.064,0,.128.008.192.013.009,0,.216.026.081.007a4.247,4.247,0,0,1,.784.195c.058.02.115.042.172.065-.123-.048.062.029.07.033.11.051.217.109.323.169s.206.127.306.2c.007,0,.167.123.064.043.064.049.125.1.185.154a4.306,4.306,0,0,1,.5.522c.125.153-.071-.1.046.061.036.049.069.1.1.149.079.118.149.241.215.366.029.054.055.109.081.164,0,.008.083.192.033.07.047.114.086.231.123.348s.066.24.093.361c.013.061.024.123.035.185q.018.116,0,.016.008.063.013.127c.012.128.016.257.017.386a.645.645,0,0,0,1.289,0Z" transform="translate(-465.337 -400.876)"/></g></g><g transform="translate(92.14 132.67)"><g transform="translate(0 0)"><path class="a" d="M527.005,134.9q0,.064-.005.127.018-.1,0,.014a1.574,1.574,0,0,1-.066.235c.04-.116-.051.092-.065.117s-.042.067-.065.1c.073-.107-.041.042-.051.053s-.194.166-.095.093a1.591,1.591,0,0,1-.259.149c.112-.054-.107.027-.133.034s-.081.018-.121.024c.135-.024-.067,0-.08,0a.972.972,0,0,1-.646-.255c-.019-.018-.166-.194-.093-.095a1.586,1.586,0,0,1-.149-.259c.054.112-.027-.107-.034-.133s-.018-.08-.024-.121c.024.135,0-.067,0-.08s.022-.237,0-.113a1.575,1.575,0,0,1,.063-.24q.04-.107.005-.015.027-.055.057-.107t.065-.1c-.07.105.042-.047.051-.057s.192-.17.1-.1a1.589,1.589,0,0,1,.261-.153c-.108.052.11-.03.136-.037s.082-.018.123-.025c-.133.024.072,0,.083,0a.973.973,0,0,1,.657.266c.019.018.162.2.093.1q.035.05.065.1c.005.009.092.186.041.065a1.579,1.579,0,0,1,.072.236q.021.115.007.015a1.517,1.517,0,0,1,.008.159.645.645,0,1,0,1.289,0,2.233,2.233,0,1,0-2.233,2.233,2.265,2.265,0,0,0,2.233-2.233.645.645,0,1,0-1.289,0Z" transform="translate(-523.828 -132.67)"/></g></g></g></svg>