<svg xmlns="http://www.w3.org/2000/svg" width="35.951" height="37" viewBox="0 0 35.951 37"><defs><style>.a{fill:#fff;}</style></defs><g transform="translate(0 0)"><path class="a" d="M21.976,40.3C13.587,40.3,4,27.567,4,16.332V12.438A4.363,4.363,0,0,1,7,8.243L19.429,3.749a7.44,7.44,0,0,1,5.093,0L36.955,8.243a4.506,4.506,0,0,1,3,4.194v3.895C39.951,27.567,30.364,40.3,21.976,40.3Zm0-34a5.322,5.322,0,0,0-1.5.3L8.045,11.089A1.439,1.439,0,0,0,7,12.438v3.895C7,26.519,15.834,37.3,21.976,37.3s14.98-10.785,14.98-20.972V12.438a1.439,1.439,0,0,0-1.049-1.348L23.474,6.6A2.7,2.7,0,0,0,21.976,6.3Z" transform="translate(-4 -3.3)"/><path class="a" d="M16.294,21.381a1.346,1.346,0,0,1-1.038-.445l-3.411-3.411a1.468,1.468,0,0,1,2.076-2.076l2.225,2.225,6.229-6.229a1.468,1.468,0,0,1,2.076,2.076l-7.267,7.415A1.057,1.057,0,0,1,16.294,21.381Z" transform="translate(-0.247 0.58)"/></g></svg>