<svg xmlns="http://www.w3.org/2000/svg" width="35.874" height="32.516" viewBox="0 0 35.874 32.516"><defs><style>.a{fill:#fff;}</style></defs><g transform="translate(-2.5 -7)"><g transform="translate(2.5 7)"><path class="a" d="M37.2,9.942H17.551L16.382,7.6A1.087,1.087,0,0,0,15.4,7H3.632A1.135,1.135,0,0,0,2.5,8.132V38.385a1.135,1.135,0,0,0,1.132,1.132h33.61a1.135,1.135,0,0,0,1.132-1.132V11.074A1.168,1.168,0,0,0,37.2,9.942Zm-22.52-.754,1.169,2.339a1.087,1.087,0,0,0,.981.6H36.11v3.621H4.726V9.188ZM4.726,37.253v-19.2H36.11v19.2Z" transform="translate(-2.5 -7)"/><path class="a" d="M45.653,48.681H45.2V46.908a3.508,3.508,0,1,0-7.016,0v1.773h-.453A1.135,1.135,0,0,0,36.6,49.813v6.3a1.135,1.135,0,0,0,1.132,1.132h7.959a1.135,1.135,0,0,0,1.132-1.132V49.775A1.217,1.217,0,0,0,45.653,48.681Zm-5.281-1.773a1.283,1.283,0,0,1,2.565,0v1.773H40.372V46.908Zm4.149,8.072H38.788V50.907h5.734v4.074Z" transform="translate(-23.737 -29.669)"/></g></g></svg>