<svg xmlns="http://www.w3.org/2000/svg" width="28.156" height="42.344" viewBox="0 0 28.156 42.344"><defs><style>.a{fill:#fff;stroke:#fff;}</style></defs><g transform="translate(-21.99 0.506)"><path class="a" d="M24.473,26.806a.645.645,0,0,0,0,.913l5.7,5.7a.646.646,0,1,0,.913-.913l-5.7-5.7A.645.645,0,0,0,24.473,26.806Z" transform="translate(-1.126 -18.019)"/><path class="a" d="M79.241,18.885v-7.96a.645.645,0,1,0-1.291,0v7.96a.645.645,0,1,0,1.291,0Z" transform="translate(-37.476 -6.952)"/><path class="a" d="M48.269.5a.646.646,0,0,0-1.252.323l1.936,7.744A.646.646,0,0,0,50.2,8.245Z" transform="translate(-16.51 0)"/><path class="a" d="M23.25,51.338c2.026,2.9,2.01,4.214,2,5.485-.1,9.241,6.308,12.1,10.112,12.326.29.016.571.026.852.026A12.442,12.442,0,0,0,45.569,65.1l2.113-2.33.035-.042,1.049-1.158a2.923,2.923,0,0,0-1.452-4.924,2.626,2.626,0,0,0-2.242-3.307,2.7,2.7,0,0,0,.161-.9A2.9,2.9,0,0,0,42.9,49.58l3.5-3.514A2.92,2.92,0,1,0,42.2,42C38.367,46.1,33.6,50.758,31.717,51.522c-1.1.452-1.362.1-2.21-1.291A10.2,10.2,0,0,0,27.2,47.36a2.665,2.665,0,0,0-3.517-.071A2.885,2.885,0,0,0,23.25,51.338Zm23.441,6.537a1.613,1.613,0,0,1,1.152.478,1.642,1.642,0,0,1-.023,2.33L46.8,61.809a1.484,1.484,0,0,1-1.671-.281l-.058-.061a1.494,1.494,0,0,1-.123-2l1.613-1.613Zm-.968-2.885A1.336,1.336,0,0,1,45.8,56.8a.646.646,0,0,0-.074.081h0l-1.852,1.852a1.491,1.491,0,0,1-1.542-.323l-.077-.077a1.507,1.507,0,0,1-.09-1.988c.258-.2,1.339-1.055,1.913-1.549a1.345,1.345,0,0,1,1.639.19Zm-2.259-3.714a1.613,1.613,0,0,1,.478,1.152,2.042,2.042,0,0,1-.678,1.362c-.394.342-1.242,1.023-1.868,1.513a1.549,1.549,0,0,1-1.526-.4l-.042-.042a1.568,1.568,0,0,1,0-2.217l1.517-1.517a1.613,1.613,0,0,1,2.117.145ZM24.483,48.286a1.371,1.371,0,0,1,1.9.061,9,9,0,0,1,2.02,2.536,6.856,6.856,0,0,0,1.116,1.533.645.645,0,0,0,.039.052,2.692,2.692,0,0,1,.032,3.375.645.645,0,0,0,1.087.694,4.2,4.2,0,0,0,.594-3.549,3.668,3.668,0,0,0,.929-.255c2.539-1.042,8.492-7.221,10.938-9.831a1.613,1.613,0,0,1,1.162-.516,1.631,1.631,0,0,1,1.181,2.785l-6.569,6.556a2.859,2.859,0,0,0,0,4.053l.035.036a2.833,2.833,0,0,0,1.649.81,2.807,2.807,0,0,0,.736,2.636l.026.023.026.026a2.785,2.785,0,0,0,1.968.807,2.772,2.772,0,0,0,.8,2.259l.048.055a2.8,2.8,0,0,0,1.358.749l-.968,1.068-.026.029a11.319,11.319,0,0,1-9.128,3.585,10.09,10.09,0,0,1-4.659-1.613h.581c1.613-.1,3.088-1.081,4.4-2.9a.645.645,0,0,0-1.049-.752c-1.074,1.5-2.226,2.3-3.427,2.378a4.231,4.231,0,0,1-2.981-1.249.645.645,0,0,0-.094-.081,12.177,12.177,0,0,1-1.671-6.8c.019-1.707-.136-3.249-2.23-6.243A1.631,1.631,0,0,1,24.483,48.286Z" transform="translate(0 -27.838)"/><path class="a" d="M56.536,38.071l-1.426.207,1.033,1.007L55.9,40.7l1.275-.671,1.275.671-.245-1.42,1.033-1.007-1.426-.207-.636-1.291Z" transform="translate(-22.006 -24.902)"/><path class="a" d="M63.738,12.564l.436.981.516-.945,1.068-.11-.739-.781.226-1.052-.971.461-.932-.539.139,1.068-.8.72Z" transform="translate(-27.133 -7.155)"/><path class="a" d="M35.489,13.839l-.778-.739L34.6,14.168l-.945.513.981.439.2,1.058.72-.8,1.068.142-.539-.932.465-.968Z" transform="translate(-7.47 -8.862)"/></g></svg>