<svg xmlns="http://www.w3.org/2000/svg" width="22.637" height="24.675" viewBox="0 0 22.637 24.675"><defs><style>.a{fill:#6c7174;}</style></defs><path class="a" d="M-236.747,363.515c-3.123,0-5.144,1.312-5.564,3.57-.052.341-.079,1.312-.079,1.417a.65.65,0,0,0,.656.656.65.65,0,0,0,.656-.656c0-.315.026-1.024.052-1.181.394-2.178,2.835-2.493,4.278-2.493,1.207,0,4.042.262,4.3,2.73,0,.105.026.551.026.787a.65.65,0,0,0,.656.656.65.65,0,0,0,.656-.656s0-.709-.026-.945C-231.392,364.985-233.492,363.515-236.747,363.515Zm0-.892c1.785,0,3.255-1.732,3.255-3.858a3.207,3.207,0,0,0-3.255-3.438A3.207,3.207,0,0,0-240,358.765C-240,360.891-238.531,362.623-236.747,362.623Zm0-5.984a1.914,1.914,0,0,1,1.942,2.126c0,1.391-.866,2.546-1.942,2.546s-1.942-1.129-1.942-2.546A1.914,1.914,0,0,1-236.747,356.639Zm11.155.5a4.691,4.691,0,0,0-2.152-2.782c-1.1-.656-2.2-1.286-3.307-1.916s-2.2-1.26-3.307-1.916a4.744,4.744,0,0,0-2.2-.63,4.468,4.468,0,0,0-2.467.577c-.63.367-1.26.709-1.864,1.076-1.575.892-3.2,1.837-4.8,2.782a4.575,4.575,0,0,0-2.336,4.068c-.026,1.706,0,3.438,0,5.118v2.546a4.382,4.382,0,0,0,.21,1.365,4.83,4.83,0,0,0,2.126,2.7c1.1.63,2.179,1.26,3.281,1.89s2.179,1.26,3.255,1.89a4.592,4.592,0,0,0,2.126.656h.367a4.427,4.427,0,0,0,2.284-.6c2.152-1.26,4.41-2.572,6.588-3.832a4.37,4.37,0,0,0,1.706-1.68,4.293,4.293,0,0,0,.682-2.231v-7.848A4.263,4.263,0,0,0-225.592,357.137Zm-1.129,9.134a3.015,3.015,0,0,1-.525,1.575,2.972,2.972,0,0,1-1.207,1.207c-2.2,1.26-4.462,2.572-6.614,3.832a3.414,3.414,0,0,1-1.89.42,3.48,3.48,0,0,1-1.549-.5c-1.076-.63-2.178-1.26-3.281-1.89s-2.2-1.26-3.281-1.89a3.368,3.368,0,0,1-1.549-1.995,2.543,2.543,0,0,1-.157-.945v-7.664a3.241,3.241,0,0,1,1.706-2.966c1.575-.945,3.2-1.864,4.777-2.782.63-.367,1.26-.709,1.89-1.076a2.917,2.917,0,0,1,1.6-.42h.157a3.441,3.441,0,0,1,1.6.472c1.1.656,2.2,1.286,3.307,1.916s2.2,1.26,3.307,1.916a3.407,3.407,0,0,1,1.549,2.047,3.182,3.182,0,0,1,.131.892v7.848Z" transform="translate(248.044 -349.891)"/></svg>